<svg xmlns="http://www.w3.org/2000/svg" version="1.1" xmlns:xlink="http://www.w3.org/1999/xlink" xmlns:svgjs="http://svgjs.dev/svgjs" viewBox="0 0 1422 800" opacity="0.6"><g fill="none" stroke-width="1.75" stroke="#ffffff" stroke-linecap="round"><path d="M1879.65 144.2C1971.96 161.13 2040.61 180.72 2080.46 202.96 2089.22 225.27 2065.95 250.38 2013.04 278.35 1837.23 335.09 1616.25 404.68 1415.08 487.81 1287.35 572.96 1265.39 671.51 1347.25 781.08 1508.78 887.09 1698.86 995.76 1865.53 1098.09 1971.48 1179.37 1987.12 1236.85 1912.53 1258.86 1764.06 1242.4 1574.98 1182.88 1383.56 1082.72 1219.26 964.59 1111.06 837.47 1068.93 727.54 1093.14 668.21 1170.08 673.82 1278.5 758.88 1404.55 914.13 1519.91 1119.37 1608.31 1334.73 1665.63 1505.66 1680.45 1594.09 1655.64 1570.62 1595.72 1444.02 1508.29 1247.22 1404.22 1043.36 1285.45 910.84 1165.89 897.7 1052.57 1023.13 941.02 1250.08 842.35 1504.92 757.47 1693.13 679.01 1740.17 613.19 1625.79 557.87 1393.21 506.85 1146.72 462.84 991.2 423.64 1003.51 404.51 1076.5 386.11 1185.08 368.29 1317.07 350.55 1456.53 333.24 1587.18 316.31 1692.77 299.38 1759.91 283.03 1779.93 267.32 1751.21 251.7 1677.81 236.88 1568.84 223.03 1437.72 196.28 1169.63 175.3 993.2 162.46 978.7 153.92 1127.06 157.01 1365.95 174.03 1591.01 197.47 1715.31 236 1686.47 288.87 1520.61 343.51 1276.09 405.84 1040.46 469.02 887.51 517.49 856.73 550.93 947.14 558.66 1116.35 531.29 1313.42 466.06 1470.22 360.3 1544.9 223.45 1522.73 61.59 1408.71 -108.84 1234.44 -261.63 1030.51 -380.84 841.53 -445.03 696.27 -442.89 606.97 -372.39 581.8 -243.34 609.92 -87.18 683.13 69.08 777.53 187.33 873.82 231.72 969.45 188.49 1042.73 57.72 1088.98 -133.76 1114.79 -345.88 1113.56 -526.52 1091.23 -627.5 1053.1 -621.7 1003.33 -507.04 948.75 -318.94 887.67 -107.93 828.9 61.18 776.46 110.74 749.72 131.48 725.15 121.03 703 79.48 680.77 9.97 661.12 -82.33 644.19 -189.99 627.26 -303.08 613.24 -412.35 602.03 -548.97 586.42 -601.37 559.23 -360.22 553.34 -139.85 544.06 49.75 531.1 161.03 507.79 169.76 468.68 80.74 409.77 -74.87 325.29 -259.09 220.35 -419.06 89.85 -517.34 -61.37 -535.9 -213.27 -468.85 -361.63 -333.83 -487.04 -154.28 -567.35 33.98 -592.58 200.26 -551.73 325.6 -454.92 393.01 -312.44 402.49 -152.89 358.12 -23 276.37 48.75 176.04 30.93 65.58 -83.72 -31.72 -278.22 -105.02 -510.55 -154.61 -715.03 -170.83 -838.24 -156.6 -837.67 -116.31 -714.92 -54.16 -506.89 21.87 -287.19 111.46 -146.15 204.26 -139.36 294.63 -282.76 388.26 -526.93 474.19 -782 550.37 -943.42 626.08 -941.99 691.33 -775.52 745.89 -514.13 773.01 -386.36 797.58 -279.92 819.58 -208.22 841.56 -181.2 861.04 -202.07 877.97 -269.21 894.9 -374.8 909.08 -504.59 920.55 -642.36 931.98 -772.65 940.63 -878.7 946.49 -948.34 957.9 -953.96 957.64 -788.47 945.78 -528.91 933.47 -283.26 910.27 -152.71 878.07 -180.64 849.14 -349.75 816.47 -582.54 785.57 -784.67 768.21 -885.28 763.29 -844.54 778.6 -681.82 819.97 -447.75 890.17 -218.14 991.94 -56.29 1117.43 2.43 1265.14 -48.29 1424.05 -179.22 1572.84 -354.6 1701.08 -517.58 1789.83 -628.45 1824.73 -669.12 1799.59 -628.23 1714.23 -520.46 1587.94 -362.08 1437.36 -184.56 1293.08 -14.24 1193.31 138.1 1159.07 251.6 1207.85 323.65 1336.33 357.25 1523.89 356.99 1732.93 334.4 1913.37 290.75 2024.44 242.22 2034.81 197.64 1942.64 149.51 1769.2 113.69 1561.9 92.4 1338.8 70.83 1407.5 86.81 1547.07 102 1658.04 113.2 1771.99 127.27 1879.65 144.2Q1879.65 144.2 1879.65 144.2" opacity="0.29"></path><path d="M1771.68 799.67C1919.88 829.77 1980.62 859.22 1941.82 886.79 1815.15 912.83 1631.96 934.04 1436.31 947.39 1269.94 955.29 1168.86 950.76 1149.82 930.62 1213.67 902.01 1340.41 855.97 1498.87 793.19 1660.33 727.56 1787.46 653.57 1857.71 579.88 1862.29 524.48 1799.31 489.38 1682.48 487.43 1527.75 527.71 1360.61 612.98 1203.53 743.1 1070.2 901.84 977.02 1078.04 928.16 1247.42 923.53 1378.31 956.88 1452.23 1017.15 1450.28 1099.78 1373.58 1187.7 1232.97 1270.31 1057.81 1347.89 897.53 1406.95 788.55 1445.05 768.07 1466.75 850.86 1467.31 1023.21 1450.26 1246.03 1419.27 1456.5 1376.62 1597.9 1327.06 1624.05 1270.12 1526.88 1211.84 1333.68 1155.66 1107.14 1096.88 930.47 1043.24 864.21 996.6 939.06 949.47 1132.53 910.41 1377.76 880.31 1583.88 850.21 1671.22 829.78 1606.62 818.29 1418.77 806.3 1176.12 802.17 966.28 804.18 858.81 803.6 885.52 806.12 1030.43 808.45 1238.29 803.4 1444.33 792.59 1577.69 771.42 1600.62 736.31 1509.06 684.87 1330.01 613.76 1114.58 526.23 912.59 419.19 774.21 295.22 723.41 166.22 764.07 33.51 876.57 -92.19 1026.58 -195.52 1185.69 -270.2 1312.71 -305.02 1385.34 -295.61 1396.52 -240 1343.33 -142.22 1239.7 -20.68 1097.4 112.95 940.37 236.33 787.68 321.82 645.5 355.63 531.29 324.21 448.38 227.1 393.98 75.45 368.36 -108.06 364.15 -288.58 379.65 -434.92 404.66 -515.76 431.74 -513.7 465.93 -427 494.2 -272.24 513.06 -88.21 532.82 86.11 540.83 206.82 536.23 239.67 531.45 175.88 514.17 27.68 484.08 -168.57 453.98 -359.28 411.77 -497.31 357.93 -552.93 303.91 -511.75 238.13 -386.71 161.61 -206.41 85.99 -12.33 1.95 154.38 -86.83 263 -168.53 294.2 -246.99 248.7 -314.67 137.61 -362.63 -9.99 -387.88 -162.57 -382.92 -296.68 -349.44 -383.45 -283.22 -410.73 -187.44 -377.19 -81.13 -287.91 31.09 -158.86 130.33 -3.86 190.9 154.26 202.78 298.2 152.17 419.58 40.1 505.73 -124.47 554.96 -319.12 568.3 -504.68 550.71 -650.7 511.01 -722.72 451.14 -703.28 384.8 -594.09 320.1 -418.96 254.12 -230.37 199.55 -75.83 158.94 -6.32 125.75 -51.29 107.72 -204.22 103.24 -427.23 105.97 -652.09 119.06 -811.39 139.69 -849.75 164.14 -753.93 192.63 -552.97 222.95 -316.27 254.28 -134.35 285.44 -72.76 315.54 -160.04 345.64 -366.15 373.96 -608.33 401.26 -795.88 429.58 -864.82 458.86 -789.73 491.17 -601.46 527.31 -363.31 569.97 -155.72 621.85 -41.53 680.94 -50.67 752.43 -172.45 837.79 -360.85 930.55 -561.61 1035.99 -709.45 1151.39 -765.42 1265.52 -718.11 1379.84 -579.98 1486.1 -388.37 1572.19 -181.86 1634.58 -7.73 1664.31 104.52 1658.15 142.03 1613.32 105.7 1531.4 14.27 1426.9 -115.65 1306.34 -250.51 1186.88 -366.2 1093.37 -453.26 1037.61 -493.74 1035.41 -487.64 1094.03 -439.31 1209.97 -356.25 1370.93 -251.44 1550.35 -128.32 1722.5 -3.47 1855.64 114.31 1923.2 229.26 1911.6 328.76 1819.97 411.99 1670.23 486.74 1490.53 547.04 1321.85 595.9 1208.42 639.33 1176.1 675.89 1237.67 708.48 1381.66 739.53 1575.42 769.57 1771.68 799.67Q1771.68 799.67 1771.68 799.67" opacity="0.31"></path><path d="M1664.47 139.98C1797.66 166.32 1865.69 184 1857.84 193.95 1777.85 204.74 1641.12 209.55 1474.07 210.73 1304.31 215.74 1161.45 221.25 1066.82 231.29 1032.5 250.78 1060.26 280.98 1140.49 326.41 1261.14 386.78 1398.03 466.44 1529.32 566.51 1641.03 678.33 1713.82 804.34 1740.46 937.43 1720.6 1061.54 1656.51 1172.71 1558.16 1257.54 1433.69 1303.65 1298.35 1305.38 1164.78 1257.7 1038.49 1169.32 931.84 1046.19 849.23 905.75 774.24 729.09 770.92 710.74 817.4 915.79 861.43 1103.53 905.85 1290.69 946.58 1437.72 988.96 1510.51 1023.45 1492.24 1048.71 1383.25 1072.22 1212.49 1086.01 1018.05 1090.43 851.37 1093.17 762.2 1087.67 775.1 1074.66 892.36 1061.09 1083.98 1041.03 1298.93 1014.69 1475.18 988.35 1559.78 956.36 1527.61 918.63 1391.74 880.34 1190.99 835.29 982.16 782.88 820.39 728.8 744.24 666.22 769.63 594.93 883.2 521.88 1056.34 440.61 1240.12 352.59 1389.88 266.22 1476.02 177.29 1477.01 90.02 1396.82 12.91 1251.6 -54.3 1072.22 -105.57 892.44 -135.88 737.36 -142.4 633.05 -121.44 588.78 -76.51 605.35 -6.02 672.5 85.74 772.44 184.79 893.75 287.26 1011.29 380.63 1109.55 447.88 1184.48 482.65 1223.13 475.08 1225.85 421.02 1196.21 322.7 1138.08 187.5 1060.27 32.72 964.79 -125.62 863.33 -265.57 763.04 -365.11 660.09 -410.02 565.9 -390.56 482.75 -310.79 403.04 -180.51 335.1 -20.91 278.09 135.96 224.17 264.94 178.99 339.72 141.14 342.36 104.29 271.66 72.92 138.47 46.58 -32.03 20.24 -203.17 -0.43 -342.12 -14.88 -426.36 -28.33 -438.78 -33.7 -379.76 -29.45 -260.81 -22.12 -103.53 -2.97 64.76 28.94 219.72 64.3 336.82 111.71 401.84 169.02 408.67 223.67 360.95 280.62 270.99 332.87 150.36 367.44 21.92 383.6 -95.99 372.66 -193.49 329.36 -254.58 251.52 -274.68 138.91 -254.64 2.97 -196.53 -150.72 -108.92 -306.55 2.5 -441.02 125.11 -541.05 248.78 -588.74 370.85 -575.58 479.92 -500.61 571.98 -372.96 648.57 -220.61 705.4 -66.75 744.39 54.98 767.69 111.7 777.7 89.26 778.6 -16.15 769.75 -185.2 757.53 -386.13 745.45 -574.14 729.23 -702.58 716.92 -740.58 710.54 -674.62 703.02 -523.03 703.01 -321.97 711.43 -126.42 719.69 4.25 736.76 33.8 763.09 -50.74 789.43 -226.97 824.41 -439.26 867.45 -625.69 910.34 -737.77 960.9 -742.96 1018.08 -643.65 1074.13 -466.81 1135.24 -259.8 1199.24 -74.16 1259.1 49.7 1318.1 85.14 1372.58 31.67 1417.33 -96.04 1451.83 -261.73 1471.77 -425.99 1476.03 -559.31 1461.18 -630.28 1425.18 -628.88 1373.72 -557.7 1303.85 -430.7 1219.46 -271.79 1133.48 -100.24 1047.03 55.75 970.11 178.65 917.02 260.86 891.79 295.29 902.85 286.87 954.05 239.72 1044.46 167.75 1169.38 84.24 1314.73 -8.25 1468.69 -92.28 1612.81 -160.85 1726.26 -217.68 1795.45 -252.84 1807.92 -267.56 1762.2 -267.35 1662.25 -250.78 1522.15 -222.49 1368.72 -184.74 1224.01 -141.46 1115.23 -96.8 1066.37 -48.31 1086.54 -2.57 1175.99 37.93 1320.15 79.27 1493.96 113.65 1664.47 139.98Q1664.47 139.98 1664.47 139.98" opacity="0.50"></path><path d="M1555.47 335.01C1673.02 357.58 1744.32 389.31 1760.93 429.78 1722.72 470.32 1635.12 519.66 1511.63 577.15 1367.54 634.27 1222.26 698.56 1093.19 768.23 993.04 834.86 932.67 903.29 915.54 969.76 941.77 1026.89 1004.4 1075.41 1093.17 1110.12 1200.82 1127.37 1311.31 1124.25 1413.02 1097.35 1500.95 1050.67 1563.47 981.39 1596.98 892.89 1602.11 798.49 1577.73 700.11 1528.15 609.07 1456.4 541.91 1369.27 504.13 1273.47 506.01 1170.23 552.6 1068.46 643.15 972.58 772.21 880.82 923.38 799.89 1082.46 730.7 1227.87 669.99 1336.06 620.84 1392.19 581.76 1384.2 550.22 1313.7 526.04 1189.03 506.99 1030.41 492.58 870.75 480.38 736.44 468.48 656.23 458.61 650.41 446.99 721.71 432.39 859.68 418.28 1037.02 400.19 1218.97 377.62 1366.18 355.04 1445.61 328.51 1439.43 298.65 1351.92 269.28 1202.3 237.58 1022.53 204.87 848.99 174.2 712.54 144.58 638.29 118.03 635.56 96.12 702.56 80.21 822.01 72.63 968.95 72.59 1121.4 83.59 1249.08 107.23 1332.76 139.36 1363.77 184.29 1336.54 241.27 1258.44 302.36 1139.26 370.52 997.03 441.46 849.82 504.96 708.75 561.09 591.16 603.26 505.04 623.24 452.59 619.45 435.83 587.67 449.73 527.5 491.68 439.84 551.39 328.41 619.95 203.19 697.2 70.82 770.15 -56.95 833.61 -165.85 891.73 -246.88 935.16 -289.66 963.71 -289.08 983.1 -243.4 989.03 -155.99 984 -39.67 972.13 94.83 953.03 230.2 929.52 344.98 902.75 425.94 874.73 459.68 847.43 438.61 819.3 365.02 793.53 247.47 770.96 102.37 748.38 -46.38 729.53 -177.54 713.69 -276.05 697.01 -326.57 681.71 -324.16 665.91 -270.96 646.85 -174.2 624.13 -47.62 595.05 94.93 559.13 235.46 513.11 358.88 454.6 455.02 386.93 514.46 305.36 534.8 210.18 516.11 109.66 464.42 0.72 388.56 -111.31 293.72 -214.67 193.96 -307.99 99.12 -382.25 12.27 -428.46 -55.34 -442.71 -100.1 -419.86 -123.05 -363.33 -121.05 -273.93 -96.78 -159.52 -52.61 -38.97 7.58 78.13 78.71 173.8 160.38 228.41 245.44 233.79 329.86 182.66 416.3 78.86 497.5 -67.2 571.73 -236.2 643.69 -399.69 707.55 -533.84 763.38 -613.61 816.33 -623.63 862.2 -560.19 901.8 -432.47 939.65 -267.65 972.71 -94.53 1001.73 50.64 1030.24 133.7 1055.69 137.63 1078.26 58.25 1100.84 -88.94 1120 -268.6 1135.47 -441.49 1150.42 -575.02 1160.69 -639.7 1165.41 -625.19 1168.38 -536.29 1164.33 -391.21 1152.34 -218.81 1137.47 -47.45 1113.7 91.93 1080.86 178.99 1045.76 203.54 1002.71 165.82 953.34 77.77 905.98 -47.49 856.91 -184.71 810.03 -312.36 760.39 -450.64 757.75 -445.54 824.79 -315.82 899.14 -195.19 994.93 -65.81 1108.44 60.87 1229.93 181.68 1354.83 284.56 1473.18 366.04 1572.54 427.73 1646.11 466.83 1684.94 486.65 1684.74 489.01 1643.69 478.63 1564.1 460.63 1457.22 433.28 1331.39 404.94 1201.57 379.28 1087.73 350.56 1001.75 328.09 957.26 313.54 963.56 298.63 1020.72 292.62 1123.69 296.04 1259.32 299.55 1410.37 312.43 1555.47 335.01Q1555.47 335.01 1555.47 335.01" opacity="0.87"></path><path d="M1446.47 743.71C1581.99 769.75 1623.48 798.16 1527.26 797.67 1427.05 793.6 1311.41 781.95 1190.91 762 1073.78 739.62 970.4 708.4 887.73 668.59 829.73 627.63 799.72 579.93 797.19 527.7 821.43 479.49 867.52 432.16 929.79 390.08 1006.06 361.05 1087.16 344.98 1167.07 346.69 1245.13 369.71 1312.96 415.33 1367.53 484.87 1410.3 574.12 1436.69 682.09 1447.16 803.1 1443.86 925.47 1426.51 1043.79 1397.6 1147.21 1358.19 1223.89 1311.18 1267.65 1259.4 1271.56 1201.79 1235.2 1143 1159.63 1085.17 1051.44 1025.13 926.19 968.19 794.99 915.57 675.01 862.59 585.74 814.73 537.6 772.49 540.23 730.43 596.03 694.01 699.16 663.45 837.25 633 990.44 608.23 1138 589.42 1257.18 570.61 1329.03 558.19 1341.88 552 1295.93 545.92 1199.07 546.23 1066.18 552.82 917.05 559.58 770.21 572.59 645.97 591.43 558.67 609.93 516.62 633.45 522.81 660.89 572.63 686.13 660.08 713.12 770.39 739.84 888.96 760.73 1006.53 777.76 1106.48 788.17 1179.71 788.08 1223.26 777.44 1231.59 753.82 1206.69 716.43 1151.64 664.21 1072.53 596.78 977.36 517.55 869.6 426.25 759.81 325.97 654.63 223.85 554.35 121.81 467.15 25.95 394.94 -55.9 335.59 -120.22 292.04 -161.24 262.47 -175.49 245.01 -160.81 237.91 -116.61 238.02 -47.72 245.84 43.4 256.62 149.91 267.64 259.8 282.25 366.46 294.16 459.41 301.63 527.03 310.29 564.17 313.08 565.43 309.07 528.75 305.28 457.13 294.21 356.47 275.4 236.61 256.59 112.08 230.48 -4.5 197.63 -104.5 165 -176.4 126.12 -214.51 81.98 -217.49 39.03 -184.69 -7.71 -120.59 -56.46 -30.65 -101.61 76.6 -145.81 191.87 -186.23 308.42 -218.95 416.3 -243.65 508.8 -257.08 582.42 -258.41 632.59 -244.85 658.68 -214.5 660.76 -171.3 641.43 -112.09 604.72 -38.74 551.73 39.52 489.72 123.48 423.75 206.59 353.5 277.1 287.1 332.74 227.79 365.59 173.3 368.28 129.81 339.03 97.96 275.9 74.59 183.09 62.87 64.92 61.56 -69.42 68.13 -204.77 82.94 -330.42 104.02 -431.67 130.48 -495.29 160.63 -513.75 192.57 -482.33 227.41 -405.66 262.01 -290.42 295 -150.84 329.14 -8.98 360.45 118.38 388.02 211.54 415.86 253.78 439.42 239.06 458.24 167.25 477.05 48.08 490.66 -97.56 499.47 -247.04 508.54 -381.42 513.34 -479.03 514.67 -527.59 517.16 -522.99 517.41 -465.88 516.71 -366 518.89 -235.41 522.16 -91.96 528.3 47.07 539.82 169.06 556.8 259.97 581.12 313.12 613.32 326 655.02 300.48 707.39 243.38 768.23 159.56 839.73 62.18 921.13 -37.97 1007.36 -136.77 1099.6 -221.26 1194.5 -285.86 1285.13 -330.74 1370.62 -350.53 1445.82 -346.64 1504.74 -321.43 1545.02 -277.36 1562.53 -219.34 1556.03 -148.27 1524.09 -70.94 1467.25 8.14 1391.53 91.26 1298.97 170.75 1196.21 244.32 1094.74 316.72 999.73 381.35 920.4 437.87 866.91 491.95 843.1 538.45 853.34 578 898.71 615.9 976.14 648.15 1079.87 675.41 1200.17 702.18 1326.61 724.9 1446.47 743.71Q1446.47 743.71 1446.47 743.71" opacity="0.24"></path><path d="M1336.21 21.86C1484.21 51.96 1542.97 73.79 1504.78 92.1 1383.36 116.19 1208.87 147.9 1022.46 198.01 853.4 267.66 733.59 368.89 674.08 505.13 675.35 655.99 725.85 823.58 805.12 982.43 908.11 1095.59 1006.63 1145.22 1087.16 1106.57 1158.4 988.86 1202.42 807.23 1221.27 609.23 1228.25 466.61 1217.61 421.5 1195.91 505.05 1170.37 697.89 1140.93 941.85 1110.83 1147.97 1080.73 1235.31 1051.4 1170.78 1020.17 988.38 985.1 751.15 940.99 541.01 881.85 417.23 810.83 404.14 717.24 492.18 599.61 639.63 472.7 814.94 330.96 961.6 188.52 1052.06 69.8 1085.25 -16.37 1054.6 -48.99 979.54 -20.81 868.99 71.99 747.5 218.99 633.13 383.34 515.42 540.7 417.65 650.5 343.19 677.07 270.84 612.21 219.43 464.21 189.33 268.03 159.22 80.86 151.86 -51.98 167.43 -108.6 185.12 -74.58 228.12 34.28 293.67 196.01 355.88 375.37 427.81 540.27 491.98 676.06 520.66 763.39 508.11 802.61 435.49 797.55 305.59 760.78 123.26 708.75 -83.39 639.79 -262.19 576.54 -377.24 528.07 -386.24 480.07 -284.55 451.9 -91.55 444.25 134.05 438.34 304.85 450.52 363.32 480.62 276.04 510.72 69.93 557.31 -167.93 619.99 -349.18 684.4 -421.14 767.33 -358.93 867.5 -194.26 968.12 25.8 1080.94 234.43 1196.3 383.49 1294.72 453.49 1374.7 439.56 1419.21 365.84 1419.44 246.44 1367.79 122.07 1263.35 17.59 1129.79 -72.25 977.43 -123.91 837.76 -141.4 750.95 -139.34 734.07 -116.3 802.3 -83.63 946.77 -45.17 1140.03 -8.22 1336.21 21.86Q1336.21 21.86 1336.21 21.86" opacity="0.27"></path><path d="M1228.47 543.19C1346.02 565.77 1415.62 605.44 1430.99 659.26 1394.9 711.48 1312.88 774.21 1199.81 840.98 1066.32 898.46 930.7 949.17 806.89 982.48 698.21 991.94 615.53 970.75 559.73 912.54 527.85 827.82 517.72 712.92 522.32 580.65 541.61 460.14 565.3 361.29 586.74 308.14 613.12 319.39 631.09 397.52 637.07 536.54 643.81 711.11 636.74 891.98 614.16 1039.18 591.59 1118.61 554.58 1111.85 505.27 1026.89 456.72 882.62 397.68 710.32 332.18 543.45 271.62 402.43 210.75 310.02 156.66 271.15 117.27 284.25 94.99 338.03 97.28 415.18 123.5 512.68 179.41 606.8 264.58 686.16 364.88 759.35 480.26 809.7 597.21 837.95 728.32 858.18 729.1 827.71 574.47 795.73 429.38 773.15 283.51 747.89 158.02 718.01 62.48 684.98 13.01 641.56 11.32 583.39 53.01 516.02 131.83 428.49 234.47 320.51 354.84 206.36 477.12 79.83 590.74 -47.25 697.41 -153.99 785.95 -234.53 855.35 -271.14 911.81 -255.79 952.48 -183.63 981.63 -59.18 1002.97 91.12 1019.47 250.57 1035.35 386.14 1049.1 462.41 1066.35 464.62 1088.92 385.24 1111.5 238.04 1138.33 61.75 1167.15 -104.12 1193.85 -234.44 1218.42 -299.75 1236.2 -294.46 1246.17 -224.77 1242.68 -105.68 1221.01 38.33 1186.4 194.11 1130.27 335.77 1053.18 450.08 969.15 537.88 873.64 591.49 776.78 616.82 668.36 611.54 663.32 547.93 798.73 527.45 932.93 516.21 1083.38 520.62 1228.47 543.19Q1228.47 543.19 1228.47 543.19" opacity="0.89"></path><path d="M1119.53 593.38C1267 623.48 1321.67 606.21 1285.68 543.7 1177.82 478.1 1028.32 373.24 878.13 260.14 726.5 195.99 605.26 194.64 520.45 294.54 445.24 482.68 394.16 724.08 364.07 930.19 333.97 1017.53 327.69 953.08 350.74 784.97 383.39 563.82 457.65 363.3 569.83 225.25 680.57 141.96 798.14 114.73 883.94 111.6 897.87 128.1 831 130.62 683.53 100.53 487.52 70.43 307.43 10.56 186.69 -58.09 128.13 -107.13 146 -126.88 214.89 -83.04 321.64 15.55 436.78 184.15 533.58 383.23 633.61 529.28 703.62 581.53 733.72 494.19 763.84 288.08 751.18 58.88 703.32 -107.19 658.68 -185.03 590.51 -151.75 523.2 -48.15 493.76 104.39 507.8 256.23 588.4 373.99 731.19 488.66 923.47 563.27 1119.47 593.37Q1119.53 593.38 1119.53 593.38" opacity="0.21"></path></g></svg>