<svg xmlns="http://www.w3.org/2000/svg" version="1.1" xmlns:xlink="http://www.w3.org/1999/xlink" xmlns:svgjs="http://svgjs.dev/svgjs" viewBox="0 0 800 800" opacity="0.73"><defs><symbol id="bbburst-shape-8" viewBox="0 0 87 168"><path d="m12 12 31.2546 18.0749c16.4102 9.4902 20.014 31.6325 7.4603 45.8369L36.3296 92.1884c-12.5684 14.2206-8.9394 36.3916 7.5068 45.8636L75 156" stroke-width="14" stroke-linecap="round" stroke-linejoin="round"></path></symbol><symbol id="bbburst-shape-9" viewBox="0 0 182 172"><path d="M13.5809 69.845 91 13.5967l77.419 56.2483-29.571 91.012H43.1524L13.5809 69.845Z" stroke-width="22"></path></symbol><symbol id="bbburst-shape-11" viewBox="0 0 194 167"><path d="M10.398 161 97 11l86.603 150H10.397Z" stroke-width="11"></path></symbol><symbol id="bbburst-shape-12" viewBox="0 0 170 151"><path d="M69.3728 54.2122 85 10.0031l15.627 44.2091c1.413 3.9958 5.19 6.6672 9.428 6.6673h49.312l-39.149 26.1447c-3.803 2.5401-5.399 7.3367-3.875 11.6488l15.179 42.94-40.9683-27.36c-3.3621-2.245-7.7453-2.245-11.1074 0l-40.9682 27.36 15.1785-42.94c1.5243-4.3121-.0712-9.1087-3.8746-11.6488L10.6333 60.8795h49.3112c4.2381-.0001 8.0159-2.6715 9.4283-6.6673Z" stroke-width="12"></path></symbol><symbol id="bbburst-shape-14" viewBox="0 0 185 109"><path d="M168 16.5C168 58.1975 134.197 92 92.5 92 50.8025 92 17 58.1975 17 16.5" stroke-width="33" stroke-linecap="round"></path></symbol></defs><use xlink:href="#bbburst-shape-9" width="97.00953245847046" opacity="0.10572123962912028" transform="matrix(0.9865725157410794,-0.16332382307648066,0.16332382307648066,0.9865725157410794,582.4709193400761,-260.24750382359554)" fill="none" stroke="#ffe45e"></use><use xlink:href="#bbburst-shape-9" width="76.70260137437799" opacity="0.2918332031620502" transform="matrix(0.9711315249374055,0.23854467353673872,-0.23854467353673872,0.9711315249374055,444.6989177847724,320.2815820009732)" fill="none" stroke="#7fc8f8"></use><use xlink:href="#bbburst-shape-8" width="65.7088246424754" opacity="0.28414308986328407" transform="matrix(0.8877613973351909,-0.460303922861265,0.460303922861265,0.8877613973351909,239.04541508716932,-257.83767794019366)" fill="none" stroke="#ff6392"></use><use xlink:href="#bbburst-shape-12" width="83.39883145609983" opacity="0.09161352292997149" transform="matrix(0.9018771682943929,-0.4319925616365255,0.4319925616365255,0.9018771682943929,-75.04949249038984,-254.47218429925937)" fill="none" stroke="#ff6392"></use><use xlink:href="#bbburst-shape-12" width="87.78923209944415" opacity="0.2841525866344984" transform="matrix(0.843632403926372,-0.5369211925836144,0.5369211925836144,0.843632403926372,-163.3635977979049,168.13675373190546)" fill="none" stroke="#7fc8f8"></use><use xlink:href="#bbburst-shape-14" width="69.02201117615789" opacity="0.5519450706098441" transform="matrix(0.9999519581706845,-0.009802109498144354,0.009802109498144354,0.9999519581706845,291.55459686696327,-188.62664394467038)" fill="none" stroke="#7fc8f8"></use><use xlink:href="#bbburst-shape-12" width="79.14994977155818" opacity="0.5590841028433458" transform="matrix(0.8457362892752768,0.5336010953913845,-0.5336010953913845,0.8457362892752768,699.4813909278295,198.90551723185945)" fill="none" stroke="#ffe45e"></use><use xlink:href="#bbburst-shape-8" width="76.99702174969917" opacity="0.0800714250247101" transform="matrix(0.8821481008703522,-0.47097210971652115,0.47097210971652115,0.8821481008703522,-104.84504857840834,367.87132481093846)" fill="none" stroke="#ff6392"></use><use xlink:href="#bbburst-shape-8" width="86.96330301883884" opacity="0.095150482890764" transform="matrix(0.884388138156543,-0.4667522052310018,0.4667522052310018,0.884388138156543,455.4049993231888,361.6385225979338)" fill="none" stroke="#ff6392"></use><use xlink:href="#bbburst-shape-8" width="76.85459536801444" opacity="0.9289060573024831" transform="matrix(0.9999583687190531,-0.009124737186912372,0.009124737186912372,0.9999583687190531,326.0232944419272,-2.046168567736572)" fill="none" stroke="#ffe45e"></use><use xlink:href="#bbburst-shape-9" width="78.41090535013382" opacity="0.3304298538056639" transform="matrix(0.9785463308023346,0.20602688774353728,-0.20602688774353728,0.9785463308023346,164.30176159649204,-111.6716692242124)" fill="none" stroke="#7fc8f8"></use><use xlink:href="#bbburst-shape-8" width="65.26580541741211" opacity="0.5578051547178431" transform="matrix(0.9857651352292981,0.1681282194230453,-0.1681282194230453,0.9857651352292981,302.5261527935128,148.61499027460718)" fill="none" stroke="#ffe45e"></use><use xlink:href="#bbburst-shape-14" width="77.27436535652198" opacity="0.2942149444234837" transform="matrix(0.990027273926143,0.1408758207868545,-0.1408758207868545,0.990027273926143,733.6186411149129,34.83732882223802)" fill="none" stroke="#ff6392"></use><use xlink:href="#bbburst-shape-9" width="79.99428923985468" opacity="0.574281849045299" transform="matrix(0.8041046226154728,-0.5944878097054875,0.5944878097054875,0.8041046226154728,295.02392628276874,4.8741838589962185)" fill="none" stroke="#5aa9e6"></use></svg>