<svg xmlns="http://www.w3.org/2000/svg" version="1.1" xmlns:xlink="http://www.w3.org/1999/xlink" xmlns:svgjs="http://svgjs.dev/svgjs" viewBox="0 0 800 800" opacity="0.38"><defs><symbol id="bbburst-shape-8" viewBox="0 0 87 168"><path d="m12 12 31.2546 18.0749c16.4102 9.4902 20.014 31.6325 7.4603 45.8369L36.3296 92.1884c-12.5684 14.2206-8.9394 36.3916 7.5068 45.8636L75 156" stroke-width="14" stroke-linecap="round" stroke-linejoin="round"></path></symbol><symbol id="bbburst-shape-9" viewBox="0 0 182 172"><path d="M13.5809 69.845 91 13.5967l77.419 56.2483-29.571 91.012H43.1524L13.5809 69.845Z" stroke-width="22"></path></symbol><symbol id="bbburst-shape-11" viewBox="0 0 194 167"><path d="M10.398 161 97 11l86.603 150H10.397Z" stroke-width="11"></path></symbol><symbol id="bbburst-shape-12" viewBox="0 0 170 151"><path d="M69.3728 54.2122 85 10.0031l15.627 44.2091c1.413 3.9958 5.19 6.6672 9.428 6.6673h49.312l-39.149 26.1447c-3.803 2.5401-5.399 7.3367-3.875 11.6488l15.179 42.94-40.9683-27.36c-3.3621-2.245-7.7453-2.245-11.1074 0l-40.9682 27.36 15.1785-42.94c1.5243-4.3121-.0712-9.1087-3.8746-11.6488L10.6333 60.8795h49.3112c4.2381-.0001 8.0159-2.6715 9.4283-6.6673Z" stroke-width="12"></path></symbol><symbol id="bbburst-shape-14" viewBox="0 0 185 109"><path d="M168 16.5C168 58.1975 134.197 92 92.5 92 50.8025 92 17 58.1975 17 16.5" stroke-width="33" stroke-linecap="round"></path></symbol></defs><use xlink:href="#bbburst-shape-11" width="48.64324790326036" opacity="0.2594142231620804" transform="matrix(0.9919526616173336,0.12660930894009187,-0.12660930894009187,0.9919526616173336,420.4744086138,332.72514265109584)" fill="none" stroke="#ff6392"></use><use xlink:href="#bbburst-shape-9" width="41.457474753238344" opacity="0.44581972259131364" transform="matrix(0.8349859951378781,-0.5502711948881274,0.5502711948881274,0.8349859951378781,-74.12394556759793,156.13054890010028)" fill="none" stroke="#ffe45e"></use><use xlink:href="#bbburst-shape-14" width="49.76793104477942" opacity="0.8353726679917626" transform="matrix(0.999034590201939,-0.043930485770633805,0.043930485770633805,0.999034590201939,416.30290476425625,-43.605783257068595)" fill="none" stroke="#5aa9e6"></use><use xlink:href="#bbburst-shape-8" width="62.0245702815006" opacity="-0.013021676490391876" transform="matrix(0.9587305229592656,-0.28431634554884977,0.28431634554884977,0.9587305229592656,576.9086230462824,349.6285279302899)" fill="none" stroke="#7fc8f8"></use><use xlink:href="#bbburst-shape-14" width="51.37881690058527" opacity="0.34409676955681445" transform="matrix(0.997436064387377,-0.07156324097901365,0.07156324097901365,0.997436064387377,561.8665276703232,203.9646762091685)" fill="none" stroke="#ffe45e"></use><use xlink:href="#bbburst-shape-12" width="62.06265294388433" opacity="-0.03627546458934394" transform="matrix(0.9087687416316692,0.4173001009264106,-0.4173001009264106,0.9087687416316692,874.1457203609143,-300.56356627075473)" fill="none" stroke="#ffe45e"></use><use xlink:href="#bbburst-shape-14" width="53.228623380056135" opacity="0.545143256096012" transform="matrix(0.9526557842831878,-0.3040509113154975,0.3040509113154975,0.9526557842831878,443.37816573595705,-48.20312631972939)" fill="none" stroke="#ff6392"></use><use xlink:href="#bbburst-shape-9" width="52.24429934020712" opacity="0.22701403926994812" transform="matrix(0.9477050160312205,-0.3191476188055679,0.3191476188055679,0.9477050160312205,593.2839587206121,-8.624203370429086)" fill="none" stroke="#ffe45e"></use><use xlink:href="#bbburst-shape-8" width="59.7812670448934" opacity="0.5436301779647057" transform="matrix(0.9989700555341443,0.04537431152214513,-0.04537431152214513,0.9989700555341443,258.5808656131262,-160.16408388885293)" fill="none" stroke="#ff6392"></use><use xlink:href="#bbburst-shape-11" width="56.20298054421805" opacity="0.5152450300761008" transform="matrix(0.8080566148282395,0.5891048355193889,-0.5891048355193889,0.8080566148282395,535.3798598214499,263.36239535950534)" fill="none" stroke="#ff6392"></use><use xlink:href="#bbburst-shape-9" width="62.627712730990105" opacity="0.5186970696270619" transform="matrix(0.9995794471546801,0.02899877283514291,-0.02899877283514291,0.9995794471546801,449.6650574461879,204.02018840870795)" fill="none" stroke="#7fc8f8"></use><use xlink:href="#bbburst-shape-11" width="64.2376668514595" opacity="0.16224686773654062" transform="matrix(0.7784793259880529,-0.62767024703198,0.62767024703198,0.7784793259880529,325.87282752512465,-209.88368109112326)" fill="none" stroke="#7fc8f8"></use><use xlink:href="#bbburst-shape-9" width="54.20392251060386" opacity="0.15434277853416845" transform="matrix(0.8087224575653463,-0.5881904339833032,0.5881904339833032,0.8087224575653463,-201.99799549181623,253.62957555296305)" fill="none" stroke="#ff6392"></use><use xlink:href="#bbburst-shape-9" width="64.29227312976784" opacity="0.20574484401330262" transform="matrix(0.9255797644832385,0.37855263779183024,-0.37855263779183024,0.9255797644832385,831.4978591436991,-161.27328465668933)" fill="none" stroke="#ff6392"></use><use xlink:href="#bbburst-shape-12" width="43.55598465673411" opacity="0.15812955701566633" transform="matrix(0.9983461483184749,0.057488852290384675,-0.057488852290384675,0.9983461483184749,745.8868645904643,156.65848773534128)" fill="none" stroke="#5aa9e6"></use><use xlink:href="#bbburst-shape-9" width="57.94573075087804" opacity="0.6745205324933872" transform="matrix(0.7160984773259389,-0.6979992627298912,0.6979992627298912,0.7160984773259389,94.7724947819039,-12.876214149282362)" fill="none" stroke="#ff6392"></use><use xlink:href="#bbburst-shape-8" width="46.70715601434564" opacity="0.2259845455753583" transform="matrix(0.9960819260792324,-0.08843526750277068,0.08843526750277068,0.9960819260792324,402.5615086072255,-339.25606259510835)" fill="none" stroke="#ff6392"></use><use xlink:href="#bbburst-shape-9" width="52.32032939329091" opacity="0.23707273318470656" transform="matrix(0.8507147110745692,0.525627701288005,-0.525627701288005,0.8507147110745692,244.94335805108665,38.29973053776638)" fill="none" stroke="#5aa9e6"></use><use xlink:href="#bbburst-shape-8" width="62.798926065025654" opacity="0.18351357445105043" transform="matrix(0.8083418806359565,0.5887133462135246,-0.5887133462135246,0.8083418806359565,763.251338947727,392.1577447127624)" fill="none" stroke="#ffe45e"></use><use xlink:href="#bbburst-shape-12" width="47.95031678820996" opacity="0.4081450194657742" transform="matrix(0.9603894291365782,-0.2786613435744497,0.2786613435744497,0.9603894291365782,235.44172999228599,-242.19300724899193)" fill="none" stroke="#ffe45e"></use><use xlink:href="#bbburst-shape-8" width="50.220023695321984" opacity="0.8227425722402442" transform="matrix(0.9995214989004775,-0.030931751255672175,0.030931751255672175,0.9995214989004775,372.0843076784489,80.15958431118759)" fill="none" stroke="#5aa9e6"></use><use xlink:href="#bbburst-shape-8" width="63.2179418798126" opacity="0.15880194891457733" transform="matrix(0.9333650132786363,0.3589286168409689,-0.3589286168409689,0.9333650132786363,176.59989708608254,-156.17498834871705)" fill="none" stroke="#ffe45e"></use><use xlink:href="#bbburst-shape-14" width="49.221017126595946" opacity="0.47873952443746814" transform="matrix(0.9108562585028659,-0.4127237288382634,0.4127237288382634,0.9108562585028659,-12.22104861487847,-21.30077231125142)" fill="none" stroke="#ffe45e"></use><use xlink:href="#bbburst-shape-12" width="45.70475212219993" opacity="0.6462597354886448" transform="matrix(0.9844980756484033,-0.17539537919965487,0.17539537919965487,0.9844980756484033,448.4533198397638,83.770026634712)" fill="none" stroke="#ff6392"></use><use xlink:href="#bbburst-shape-14" width="49.46210809322943" opacity="0.2828278820752558" transform="matrix(0.8618108899144358,0.507229721156882,-0.507229721156882,0.8618108899144358,364.9481087413892,-196.45783610708017)" fill="none" stroke="#5aa9e6"></use><use xlink:href="#bbburst-shape-9" width="68.19838365791269" opacity="0.48209438980635533" transform="matrix(0.9995093056607735,-0.031323280439932384,0.031323280439932384,0.9995093056607735,479.13852303949756,-195.40687149452688)" fill="none" stroke="#ffe45e"></use><use xlink:href="#bbburst-shape-8" width="45.649088416736554" opacity="0.4030509970220413" transform="matrix(0.7353070630134505,-0.6777341094282724,0.6777341094282724,0.7353070630134505,376.5957127525371,168.40821106448055)" fill="none" stroke="#5aa9e6"></use><use xlink:href="#bbburst-shape-9" width="42.432502131800454" opacity="0.16811382882565495" transform="matrix(0.8464210386596371,0.5325142489308066,-0.5325142489308066,0.8464210386596371,433.72437133264174,387.62306093485597)" fill="none" stroke="#ff6392"></use><use xlink:href="#bbburst-shape-12" width="46.29060679232884" opacity="0.1770009665321255" transform="matrix(0.9221151406676319,0.3869155816861264,-0.3869155816861264,0.9221151406676319,400.14385549391693,-323.4024526205722)" fill="none" stroke="#5aa9e6"></use><use xlink:href="#bbburst-shape-8" width="55.148444505305925" opacity="-0.0247745235743162" transform="matrix(0.9493318471709935,-0.3142754268900281,0.3142754268900281,0.9493318471709935,-77.765475675633,355.21730431166264)" fill="none" stroke="#ff6392"></use><use xlink:href="#bbburst-shape-11" width="49.909013706212065" opacity="0.7998855677735378" transform="matrix(0.79956521438191,-0.6005792769904822,0.6005792769904822,0.79956521438191,56.81289278512651,58.81659047208183)" fill="none" stroke="#ff6392"></use><use xlink:href="#bbburst-shape-9" width="54.78495934539947" opacity="0.681879250505673" transform="matrix(0.9935149632197416,-0.11370144176075958,0.11370144176075958,0.9935149632197416,206.52129052892508,82.24877492816535)" fill="none" stroke="#ffe45e"></use><use xlink:href="#bbburst-shape-14" width="61.95514318826635" opacity="-0.025269559438654277" transform="matrix(0.9870557888213103,0.1603772731852644,-0.1603772731852644,0.9870557888213103,113.59017743962627,-332.0964078019329)" fill="none" stroke="#ff6392"></use><use xlink:href="#bbburst-shape-9" width="62.02112489150089" opacity="0.3117945486975565" transform="matrix(0.9748677694714437,-0.22278427243809656,0.22278427243809656,0.9748677694714437,60.031703490876836,233.98399923428576)" fill="none" stroke="#ff6392"></use></svg>